<?xml version="1.0" standalone="no"?><svg xmlns="http://www.w3.org/2000/svg" viewBox="0 0 1440 320"><path fill="#ffffff" fill-opacity="1" d="M0,256L30,224C60,192,120,128,180,128C240,128,300,192,360,218.7C420,245,480,235,540,229.3C600,224,660,224,720,240C780,256,840,288,900,282.7C960,277,1020,235,1080,202.7C1140,171,1200,149,1260,154.7C1320,160,1380,192,1410,208L1440,224L1440,320L1410,320C1380,320,1320,320,1260,320C1200,320,1140,320,1080,320C1020,320,960,320,900,320C840,320,780,320,720,320C660,320,600,320,540,320C480,320,420,320,360,320C300,320,240,320,180,320C120,320,60,320,30,320L0,320Z"></path></svg>